<svg width="32" height="32" viewBox="0 0 32 32" fill="none" xmlns="http://www.w3.org/2000/svg">
  <!-- Background circle with fire gradient -->
  <defs>
    <linearGradient id="fireGradient" x1="0%" y1="0%" x2="100%" y2="100%">
      <stop offset="0%" style="stop-color:#dc2626;stop-opacity:1" />
      <stop offset="50%" style="stop-color:#f97316;stop-opacity:1" />
      <stop offset="100%" style="stop-color:#fbbf24;stop-opacity:1" />
    </linearGradient>
    <linearGradient id="horseGradient" x1="0%" y1="0%" x2="100%" y2="100%">
      <stop offset="0%" style="stop-color:#1f2937;stop-opacity:1" />
      <stop offset="100%" style="stop-color:#111827;stop-opacity:1" />
    </linearGradient>
  </defs>
  
  <!-- Background circle -->
  <circle cx="16" cy="16" r="16" fill="url(#fireGradient)"/>
  
  <!-- Horse head silhouette -->
  <path d="M12 10 C10 8, 8 10, 8 12 C8 14, 9 16, 11 17 C11 18, 10 19, 10 20 C10 21, 11 22, 12 22 C13 22, 14 21, 14 20 C14 19, 13 18, 13 17 C15 16, 16 14, 16 12 C16 10, 14 8, 12 10 Z" fill="url(#horseGradient)"/>
  
  <!-- Fire effect on top -->
  <path d="M16 6 C17 5, 18 6, 18 7 C18 8, 17 9, 16 8 C15 9, 14 8, 14 7 C14 6, 15 5, 16 6 Z" fill="#fbbf24" opacity="0.9"/>
  <path d="M14 7 C15 6, 16 7, 16 8 C16 9, 15 10, 14 9 C13 10, 12 9, 12 8 C12 7, 13 6, 14 7 Z" fill="#f97316" opacity="0.8"/>
  
  <!-- Eye -->
  <circle cx="13" cy="14" r="1" fill="#dc2626"/>
</svg>

